<?xml version="1.0" encoding="utf-8"?>
<!-- Generator: Adobe Illustrator 16.0.0, SVG Export Plug-In . SVG Version: 6.00 Build 0)  -->
<!DOCTYPE svg PUBLIC "-//W3C//DTD SVG 1.1//EN" "http://www.w3.org/Graphics/SVG/1.1/DTD/svg11.dtd">
<svg version="1.1" id="图层_1" xmlns="http://www.w3.org/2000/svg" xmlns:xlink="http://www.w3.org/1999/xlink" x="0px" y="0px"
	 width="200px" height="32px" viewBox="0 0 200 32" enable-background="new 0 0 200 32" xml:space="preserve">
<path fill-rule="evenodd" clip-rule="evenodd" fill="#E84441" d="M0.87,5.856c0,0-1.356,1-0.681,2.704
	c0.676,1.703,8.849,22.309,8.849,22.309s0.805,0.816,2.382,0.676s11.572-2.705,11.572-2.705s1.165-0.504,1.36-1.352
	C24.548,26.642,22.651,1.8,22.651,1.8s-0.017-1.499-1.021-1.352C20.625,0.594,0.87,5.856,0.87,5.856z"/>
<path fill-rule="evenodd" clip-rule="evenodd" fill="#9680B9" d="M41.649,8.134c0,0-3.439-0.705-4.084,0
	c-0.645,0.705-1.292,2.012-1.362,3.38c-0.068,1.368-2.229,13.038-0.68,14.534c0.872,0.842,11.513,5.045,13.953,5.408
	c2.44,0.361,3.063-0.338,3.063-0.338l8.508-18.591c0,0,0.524-1.748-0.34-1.69S41.649,8.134,41.649,8.134z"/>
<path fill-rule="evenodd" clip-rule="evenodd" fill="#379139" d="M26.887,6.115c0,0-1.9-0.215-2.878,0.593
	c-0.422,0.349-1.077,1.537-1.334,2.425c-0.863,2.98-2.723,9.803-2.723,9.803s-0.555,1.851,0.68,2.704
	c1.236,0.853,17.698,4.056,17.698,4.056s1.033,0.483,1.701,0c0.67-0.482-0.44-14.84-0.655-16.734
	c-0.094-0.829-0.2-1.511-0.434-1.983c-0.301-0.609-1.75-0.868-1.955-0.863C36.778,6.12,26.887,6.115,26.887,6.115z"/>
<path fill-rule="evenodd" clip-rule="evenodd" fill="#F1931D" d="M58.744,3.75c-0.166-0.108-2.369-0.414-2.723,0.338
	c-0.354,0.752,0.341,24.335,0.341,24.335s0.578,1.701,1.361,2.029c0.783,0.326,12.592,1.014,12.592,1.014s0.976,0.363,1.362-0.338
	c0.385-0.701,6.806-23.999,6.806-23.999s0.477-1.978-1.021-2.028C75.966,5.052,58.911,3.859,58.744,3.75z"/>
<g>
	<g>
		<path fill-rule="evenodd" clip-rule="evenodd" fill="#FFFFFF" d="M21.069,4L2.01,9.408l1.021,5.07l6.629-2.11l3.68,15.586
			l6.062-1.504l-3.68-15.695L22.09,9.07L21.069,4z M70.077,9.07l-0.447,3.896l-0.573-0.177c0,0-4.089-0.909-5.786-0.338
			c-1.552,0.521-3.943,2.116-4.765,5.069c-0.89,3.205-0.229,7.127,3.403,7.775c3.634,0.648,5.821-0.952,5.821-0.952l-0.576,1.886
			h4.777l3.25-16.82L70.077,9.07z M67.886,19.848c-0.853,1.506-2.253,1.961-3.356,1.767c-1.182-0.209-1.633-2.428-0.685-4.028
			c0.931-1.572,3.293-2.237,4.251-1.572C69.017,16.654,68.726,18.367,67.886,19.848z M50.678,10.422
			c-2.164-0.107-3.297-0.162-6.127,0.676c-2.828,0.838-3.063,1.014-3.063,1.014l1.362,15.886l4.424-0.338l-0.681-6.422
			c0,0,1.646,1.019,3.403,1.014c1.758-0.004,3.979-1.052,4.424-2.704c0.444-1.651,0.675-3.832,0.341-5.069
			C54.428,13.242,52.845,10.531,50.678,10.422z M48.806,19.211c-1.034,0.186-2.573-1.32-2.659-2.836
			c-0.087-1.567,0.346-2.25,1.358-2.524c1.446-0.392,2.609,0.769,2.893,2.262C50.679,17.607,49.84,19.024,48.806,19.211z
			 M36.056,9.337C34.15,8.177,35.101,8.592,32.3,8.394c-2.947-0.207-6.126,0-6.126,0l-1.021,3.042c0,0,5.667-0.375,6.126,0
			c0.458,0.375,0.868,0.483,0.68,1.014c-0.188,0.531-0.341,0.675-0.341,0.675s-2.54,0.292-4.764,0.676
			c-2.225,0.384-4.031,1.452-4.424,3.042c-0.395,1.591-0.045,3.886,1.701,4.394c1.744,0.509,5.104,0.338,5.104,0.338l0.912-2.055
			c0,0-2.655,0.076-2.613-0.987c0.022-0.569,0.117-1.239,2.042-1.689s2.312-0.28,2.312-0.28l-1.064,5.417l4.879,0.61l1.701-9.466
			C37.405,13.126,37.984,10.512,36.056,9.337z"/>
	</g>
</g>
<g>
	<path fill="#FFFFFF" d="M90.261,11.925c-0.154-0.061-0.416-0.061-0.786,0c-0.111,0-0.183,0.093-0.219,0.267
		c-0.241,0-0.482,0-0.724,0c-0.377,0-0.892,0.139-1.138,0.447c-0.254,0.319,0.216,0.426,0.443,0.426c0.395,0,0.789,0,1.184,0
		c0.026,0,0.057-0.006,0.083-0.007c-0.016,0.062-0.03,0.131-0.046,0.209c-0.032,0.155-0.078,0.293-0.139,0.416
		c-0.062,0.125-0.093,0.217-0.093,0.277c-0.37,1.419-0.74,2.838-1.11,4.255c-0.358,1.376-0.748,2.782-1.165,4.218
		c-0.096,0.057-0.187,0.123-0.266,0.201c-0.337,0.336-0.677,0.656-1.069,0.928c-0.118,0.082-0.275,0.275-0.127,0.408
		c0.225,0.201,0.645,0.1,0.898,0.043c0.656-0.145,1.318-0.256,1.987-0.322c0.302-0.029,0.878-0.199,0.988-0.533
		c0.09-0.271-0.29-0.302-0.542-0.293c-0.012-0.058-0.029-0.115-0.066-0.174c-0.027-0.059-0.036-0.068-0.028-0.032
		c-0.096-0.205-0.27-0.31-0.467-0.351c-0.044-0.029-0.097-0.055-0.153-0.072c0.045-0.171,0.058-0.316,0.01-0.414l2.221-8.508
		c0.123-0.185,0.245-0.37,0.369-0.555s0.186-0.354,0.186-0.508C90.493,12.096,90.415,11.988,90.261,11.925z"/>
	<path fill="#FFFFFF" d="M98.491,21.452c-0.063-0.061-0.124-0.094-0.185-0.094l-1.295,0.834c-0.124,0.061-0.231,0.061-0.324,0
		c-0.092-0.062-0.138-0.139-0.138-0.232c0-0.092,0-0.199,0-0.323c0-0.123,0-0.216,0-0.278l1.202-3.884
		c0.122-0.185,0.122-0.384,0-0.601c-0.124-0.215-0.247-0.385-0.37-0.51c-0.31-0.061-0.571-0.076-0.786-0.045
		c-0.217,0.031-0.416,0.107-0.602,0.23c-0.185,0.125-0.37,0.248-0.555,0.37c-0.185,0.124-0.401,0.216-0.647,0.277
		c-0.063,0-0.139-0.062-0.231-0.185s-0.217-0.262-0.37-0.416c-0.154-0.154-0.401-0.232-0.739-0.232c-0.34,0-0.757,0.156-1.249,0.463
		c-0.063,0.063-0.154,0.139-0.277,0.231c-0.124,0.093-0.247,0.217-0.37,0.37c-0.124,0.154-0.217,0.277-0.277,0.37
		c-0.063,0.093-0.046,0.201,0.047,0.323c0.092,0.125,0.23,0.125,0.416,0c0.185-0.122,0.338-0.215,0.462-0.277
		c0.123-0.061,0.262-0.139,0.416-0.23c0.153-0.094,0.354-0.14,0.602-0.14c0.123,0.063,0.186,0.217,0.186,0.462
		c0,0.248-0.063,0.556-0.186,0.926c-0.124,0.369-0.277,0.756-0.462,1.156c-0.186,0.401-0.387,0.817-0.602,1.248
		c-0.217,0.432-0.37,0.832-0.463,1.203c-0.092,0.369-0.139,0.646-0.139,0.832c0.062,0.246,0.153,0.355,0.277,0.324
		c0.123-0.031,0.246-0.124,0.37-0.278c0.123-0.153,0.262-0.308,0.416-0.462c0.153-0.154,0.231-0.277,0.231-0.371
		c0-0.092,0.061-0.291,0.186-0.601c0.122-0.308,0.245-0.632,0.37-0.972c0.122-0.338,0.245-0.661,0.369-0.971
		c0.123-0.307,0.215-0.492,0.277-0.555c0.061-0.246,0.186-0.492,0.37-0.74c0.186-0.245,0.385-0.462,0.602-0.646
		c0.215-0.186,0.462-0.324,0.74-0.416c0.277-0.094,0.538-0.14,0.786-0.14l0.092,0.093c0.061,0.063,0.093,0.108,0.093,0.139
		c0,0.031-0.032,0.154-0.093,0.37c-0.063,0.216-0.092,0.355-0.092,0.416c0,0.063-0.047,0.231-0.139,0.509
		c-0.093,0.277-0.202,0.57-0.324,0.879c-0.124,0.309-0.217,0.586-0.277,0.832c-0.063,0.247-0.125,0.432-0.186,0.555
		c-0.062,0.125-0.124,0.293-0.185,0.51c-0.063,0.216-0.093,0.432-0.093,0.646c0,0.217,0.047,0.416,0.139,0.602
		c0.093,0.185,0.231,0.309,0.416,0.369c0.062,0.063,0.232,0.093,0.51,0.093c0.276,0,0.445-0.03,0.508-0.093l0.37-0.277
		c0.246-0.185,0.463-0.385,0.647-0.602c0.186-0.215,0.354-0.416,0.509-0.601c0.153-0.185,0.199-0.308,0.139-0.37L98.491,21.452z"/>
	<path fill="#FFFFFF" d="M105.325,15.995c-0.434-0.122-0.834-0.216-1.203-0.278c-0.369-0.061-0.803-0.061-1.295,0
		c-0.309,0-0.602,0.172-0.879,0.509c-0.277,0.34-0.523,0.756-0.74,1.249c-0.217,0.495-0.4,1.003-0.555,1.526
		c-0.154,0.525-0.23,0.879-0.23,1.063c0,0.063-0.016,0.171-0.047,0.323c-0.031,0.155-0.047,0.34-0.047,0.555
		c0,0.218,0.016,0.416,0.047,0.602s0.047,0.324,0.047,0.416c0,0.094,0.029,0.264,0.092,0.51c0.061,0.246,0.186,0.432,0.371,0.555
		c0.369,0.246,0.738,0.355,1.109,0.323c0.369-0.03,0.725-0.123,1.063-0.277c0.338-0.153,0.648-0.37,0.926-0.647
		s0.539-0.569,0.785-0.879c0.061-0.061,0.123-0.123,0.186-0.186c0.061-0.061,0.123-0.152,0.186-0.276
		c0.061-0.123,0.107-0.231,0.139-0.324c0.029-0.093,0.014-0.169-0.047-0.231l-0.277,0.186c-0.186,0.124-0.402,0.294-0.646,0.509
		c-0.248,0.217-0.555,0.401-0.926,0.556c-0.369,0.154-0.693,0.292-0.971,0.416c-0.277,0.123-0.494,0.123-0.648,0
		c-0.154-0.124-0.246-0.324-0.277-0.602s-0.045-0.585-0.045-0.926c0-0.338,0.029-0.707,0.092-1.109
		c0.061-0.4,0.152-0.786,0.277-1.156c0.123-0.369,0.277-0.678,0.463-0.925c0.184-0.245,0.43-0.446,0.74-0.601
		c0.307-0.154,0.646-0.231,1.018-0.231c0.184,0,0.307,0.077,0.369,0.231c0.061,0.154,0.107,0.293,0.139,0.416
		c0.031,0.124,0.061,0.217,0.092,0.277c0.031,0.063,0.078,0.154,0.139,0.277c0.186,0.063,0.338,0.031,0.463-0.093
		c0.123-0.122,0.217-0.292,0.277-0.509c0.061-0.215,0.061-0.43,0-0.646C105.448,16.381,105.386,16.181,105.325,15.995z"/>
	<path fill="#FFFFFF" d="M113.212,17.243c-0.125,0.032-0.279,0.063-0.463,0.093c-0.186,0.032-0.34-0.046-0.463-0.231
		c-0.123-0.185-0.324-0.324-0.602-0.416s-0.785,0.171-1.525,0.786c-0.246-0.615-0.523-0.939-0.832-0.972
		c-0.311-0.029-0.555,0.032-0.74,0.186c-0.186,0.155-0.369,0.324-0.555,0.509s-0.311,0.355-0.371,0.509
		c-0.061,0.154-0.061,0.264,0,0.324l0.094,0.092c0.184,0,0.338-0.061,0.463-0.186c0.121-0.121,0.244-0.245,0.369-0.369
		c0.123-0.123,0.262-0.139,0.416-0.047c0.152,0.094,0.246,0.171,0.277,0.231c0.031,0.063,0.076,0.14,0.139,0.231
		c0.061,0.093,0,0.201-0.186,0.324c-0.061,0.124-0.154,0.355-0.277,0.693c-0.123,0.34-0.246,0.693-0.369,1.063
		c-0.125,0.37-0.264,0.726-0.416,1.063c-0.154,0.34-0.264,0.57-0.324,0.693c-0.369,0.74-0.555,1.203-0.555,1.388
		s0.092,0.31,0.277,0.37c0.186,0.246,0.432,0.092,0.74-0.463c0.43-0.985,0.707-1.648,0.832-1.988
		c0.123-0.338,0.277-0.693,0.463-1.063s0.338-0.724,0.463-1.063c0.123-0.338,0.369-0.662,0.738-0.971
		c0.494-0.309,0.834-0.339,1.018-0.094c0.186,0.248,0.432,0.341,0.74,0.278c0.432-0.37,0.678-0.632,0.74-0.786
		C113.364,17.275,113.335,17.214,113.212,17.243z"/>
	<path fill="#FFFFFF" d="M119.341,19.88c-0.184,0.124-0.369,0.277-0.555,0.462s-0.416,0.401-0.693,0.647
		c-0.277,0.248-0.57,0.448-0.879,0.602c-0.309,0.154-0.602,0.277-0.879,0.369c-0.277,0.094-0.555,0.125-0.832,0.094
		s-0.447-0.14-0.508-0.324c-0.063-0.186-0.109-0.371-0.139-0.555c-0.033-0.186-0.033-0.354,0-0.51
		c0.029-0.152,0.076-0.291,0.139-0.416h0.184c0.186,0,0.309,0,0.371,0l0.186-0.092c0.121,0,0.23-0.016,0.322-0.047
		c0.094-0.029,0.277-0.106,0.555-0.23c0.277-0.123,0.539-0.262,0.787-0.416c0.246-0.154,0.492-0.385,0.74-0.694
		c0.244-0.308,0.43-0.585,0.555-0.833c0.121-0.245,0.152-0.492,0.092-0.739c-0.063-0.245-0.217-0.493-0.463-0.739
		c-0.555-0.309-1.033-0.4-1.434-0.277s-0.816,0.401-1.248,0.832c-0.432,0.432-0.74,0.818-0.924,1.156
		c-0.186,0.34-0.402,0.785-0.648,1.34c-0.123,0.248-0.217,0.556-0.277,0.926c-0.063,0.37-0.092,0.693-0.092,0.971
		s0.092,0.587,0.277,0.925c0.184,0.339,0.43,0.634,0.74,0.879c0,0.062,0.029,0.108,0.092,0.139c0.061,0.032,0.123,0.046,0.186,0.046
		c0.861,0,1.586-0.169,2.172-0.508s1.188-0.817,1.805-1.434c0.061-0.061,0.123-0.17,0.186-0.324
		c0.061-0.152,0.152-0.307,0.277-0.463c0.121-0.152,0.199-0.277,0.23-0.369c0.029-0.093,0.047-0.169,0.047-0.231V19.88
		C119.649,19.757,119.526,19.757,119.341,19.88z M115.456,19.048c0.432-0.74,0.771-1.232,1.018-1.48
		c0.246-0.246,0.447-0.37,0.602-0.37s0.293,0.046,0.416,0.139s0.186,0.201,0.186,0.323c0,0.125-0.078,0.311-0.232,0.556
		c-0.154,0.247-0.508,0.524-1.063,0.833c-0.063,0-0.201,0.016-0.416,0.045c-0.217,0.032-0.387,0.047-0.51,0.047V19.048z"/>
	<path fill="#FFFFFF" d="M126.138,21.175c0.43-1.541,0.955-3.099,1.572-4.672c0.615-1.572,1.264-3.128,1.941-4.67
		c0-0.123-0.031-0.246-0.092-0.37c-0.063-0.123-0.154-0.199-0.277-0.231c-0.125-0.03-0.264,0-0.416,0.092
		c-0.154,0.093-0.264,0.231-0.324,0.416l-0.092,0.093c0,0.124-0.016,0.231-0.047,0.324c-0.031,0.093-0.063,0.185-0.092,0.277
		c-0.033,0.092-0.063,0.185-0.094,0.277c-0.031,0.093-0.123,0.34-0.277,0.74c-0.154,0.402-0.338,0.832-0.555,1.294
		c-0.217,0.463-0.385,0.91-0.508,1.341c-0.125,0.434-0.248,0.74-0.371,0.926c0,0.063-0.016,0.123-0.045,0.185
		c-0.033,0.063-0.078,0.124-0.139,0.185c-0.063,0.063-0.201,0-0.416-0.185c-0.217-0.185-0.449-0.37-0.695-0.555
		s-0.539-0.278-0.877-0.278c-0.34,0-0.664,0.094-0.973,0.278c-0.061,0.124-0.139,0.231-0.23,0.323
		c-0.094,0.093-0.201,0.201-0.324,0.324c-0.125,0.124-0.23,0.23-0.322,0.324c-0.094,0.092-0.172,0.17-0.232,0.23
		c-0.246,0.248-0.432,0.571-0.555,0.971c-0.125,0.402-0.246,0.787-0.369,1.156c0,0.063-0.018,0.139-0.047,0.231
		c-0.033,0.093-0.047,0.171-0.047,0.231c0,0.063-0.016,0.201-0.047,0.416c-0.031,0.217-0.045,0.447-0.045,0.693
		c0,0.247,0.014,0.463,0.045,0.648c0.031,0.184,0.047,0.338,0.047,0.462s0.061,0.216,0.186,0.277
		c0.123,0.062,0.277,0.185,0.463,0.37h0.092c0.061,0.062,0.123,0.092,0.186,0.092l1.201-0.369l1.572-1.388l0.186,0.185v1.11h0.092
		c0.061,0.062,0.123,0.093,0.186,0.093c0.246,0.062,0.51,0.062,0.787,0c0.277-0.061,0.523-0.186,0.738-0.37
		c0.217-0.185,0.418-0.385,0.602-0.601c0.186-0.217,0.309-0.447,0.371-0.695c0-0.061,0-0.121,0-0.184v-0.093
		c-0.063-0.062-0.154-0.062-0.277,0c-0.125,0.062-0.264,0.155-0.418,0.276c-0.154,0.125-0.309,0.232-0.461,0.324
		c-0.154,0.094-0.355,0.078-0.602-0.046c0-0.061,0-0.139,0-0.231C126.138,21.313,126.138,21.237,126.138,21.175z M125.397,19.325
		c-0.063,0.062-0.154,0.201-0.277,0.416c-0.125,0.217-0.264,0.416-0.416,0.601c-0.154,0.185-0.293,0.37-0.416,0.556
		c-0.125,0.185-0.217,0.277-0.277,0.277c-0.063,0-0.125,0.031-0.186,0.092c-0.063,0.063-0.123,0.125-0.186,0.186
		c-0.061,0.062-0.154,0.124-0.277,0.185c0,0.062-0.045,0.124-0.139,0.185c-0.092,0.063-0.246,0.125-0.463,0.186
		c-0.215,0.062-0.385,0-0.508-0.186c-0.063-0.123-0.078-0.308-0.047-0.555c0.031-0.246,0.078-0.523,0.139-0.832
		c0.061-0.308,0.141-0.631,0.232-0.971c0.092-0.339,0.215-0.648,0.369-0.926s0.309-0.523,0.463-0.739
		c0.152-0.216,0.293-0.324,0.416-0.324c0.309-0.061,0.586-0.061,0.832,0c0.246,0.063,0.463,0.201,0.648,0.417
		c0.184,0.216,0.277,0.447,0.277,0.693C125.583,18.832,125.521,19.079,125.397,19.325z"/>
	<path fill="#FFFFFF" d="M134.284,13.775c-0.248,0-0.479,0.047-0.693,0.139c-0.217,0.093-0.34,0.231-0.371,0.416
		s0.107,0.34,0.416,0.463h0.279c0.184,0.062,0.307,0.092,0.369,0.092h0.092l0.277-0.092V13.96
		C134.653,13.838,134.53,13.775,134.284,13.775z"/>
	<path fill="#FFFFFF" d="M133.915,19.603l-0.094,0.092c-0.063,0.125-0.139,0.201-0.23,0.231c-0.094,0.032-0.156,0.078-0.186,0.139
		c-0.031,0.063-0.078,0.124-0.139,0.185l-0.092,0.093c-0.063,0.124-0.139,0.218-0.232,0.278c-0.092,0.062-0.154,0.123-0.184,0.185
		c-0.033,0.062-0.063,0.124-0.094,0.185c-0.031,0.063-0.092,0.124-0.186,0.186c-0.092,0.063-0.17,0.123-0.23,0.184
		c-0.063,0.063-0.125,0.14-0.186,0.232c-0.063,0.092-0.139,0.139-0.23,0.139s-0.139-0.093-0.139-0.277
		c0-0.186,0.047-0.339,0.139-0.463c0.092-0.123,0.215-0.385,0.369-0.786c0.154-0.399,0.324-0.8,0.51-1.202
		c0.186-0.4,0.354-0.801,0.508-1.202c0.154-0.4,0.277-0.708,0.371-0.925c0.092-0.215,0.076-0.385-0.047-0.51
		c-0.125-0.121-0.293-0.184-0.508-0.184c-0.217,0-0.449,0.045-0.693,0.139c-0.248,0.092-0.51,0.184-0.787,0.277
		c-0.277,0.092-0.494,0.23-0.646,0.416c-0.156,0.185-0.232,0.401-0.232,0.646c0.123,0,0.262,0,0.416,0s0.293-0.029,0.416-0.092
		c0.123-0.061,0.262-0.139,0.416-0.231s0.293-0.169,0.418-0.231c0.061,0.125,0.029,0.277-0.094,0.463
		c-0.125,0.185-0.186,0.34-0.186,0.463c-0.123,0.247-0.262,0.617-0.416,1.109c-0.154,0.494-0.309,0.925-0.461,1.295
		c-0.156,0.37-0.295,0.709-0.418,1.018c0,0.185-0.031,0.339-0.092,0.462v1.11c0,0.062,0.031,0.107,0.092,0.139
		c0.063,0.031,0.123,0.107,0.186,0.23c0.246,0.063,0.477,0.047,0.693-0.046c0.215-0.093,0.416-0.231,0.602-0.416
		s0.354-0.385,0.51-0.602c0.152-0.216,0.291-0.416,0.416-0.601l0.184-0.371c0.123-0.184,0.232-0.369,0.324-0.554
		s0.168-0.37,0.232-0.556c0.061-0.061,0.092-0.122,0.092-0.185C134.007,19.757,133.976,19.603,133.915,19.603z"/>
	<path fill="#FFFFFF" d="M140.646,16.92c-0.217-0.245-0.57-0.431-1.064-0.556c-0.123,0-0.277,0.017-0.461,0.047
		c-0.186,0.031-0.355,0.063-0.51,0.092c-0.154,0.032-0.293,0.079-0.416,0.14c-0.123,0.062-0.277,0.124-0.463,0.185v-0.185
		c0.186-0.801,0.432-1.633,0.74-2.498c0.309-0.862,0.586-1.694,0.832-2.497c0.061-0.37,0.031-0.585-0.092-0.647
		c-0.125-0.061-0.309-0.031-0.555,0.092c-0.248,0.124-0.494,0.293-0.74,0.509c-0.246,0.217-0.479,0.432-0.693,0.647
		c-0.217,0.216-0.369,0.401-0.463,0.555c-0.092,0.155-0.078,0.231,0.047,0.231h0.74v0.277c0,0.185,0,0.309,0,0.37
		c0,0.063,0,0.185,0,0.37s-0.033,0.31-0.094,0.37l-2.404,7.861l-0.092,1.018v0.092l0.092,0.093c0.186,0.062,0.338,0.078,0.463,0.046
		c0.123-0.03,0.215-0.106,0.277-0.23c0.061-0.123,0.152-0.246,0.277-0.37c0.061,0,0.152,0.032,0.277,0.093
		c0.123,0.062,0.215,0.123,0.277,0.185c0.246,0,0.463,0.032,0.648,0.093c0.184,0.062,0.4,0.062,0.646,0
		c0-0.061,0.061-0.107,0.186-0.139c0.123-0.031,0.246-0.077,0.369-0.139c0.123-0.061,0.246-0.139,0.371-0.231
		c0.123-0.093,0.215-0.139,0.277-0.139c0.244-0.245,0.492-0.556,0.74-0.925c0.244-0.371,0.461-0.754,0.646-1.156
		c0.186-0.4,0.338-0.848,0.463-1.342c0.123-0.492,0.152-0.939,0.092-1.34C140.999,17.491,140.86,17.167,140.646,16.92z
		 M140.091,19.093c-0.094,0.402-0.17,0.694-0.23,0.879c-0.186,0.37-0.371,0.71-0.557,1.018c-0.184,0.309-0.4,0.57-0.646,0.787
		c-0.248,0.216-0.541,0.354-0.879,0.416c-0.34,0.061-0.693,0.061-1.064,0c-0.061,0-0.123-0.031-0.184-0.094
		c-0.063-0.061-0.094-0.123-0.094-0.185c-0.061-0.245-0.061-0.509,0-0.786s0.154-0.555,0.277-0.832s0.246-0.539,0.371-0.787
		c0.123-0.245,0.277-0.492,0.463-0.739c0.061-0.122,0.123-0.261,0.184-0.416c0.061-0.153,0.139-0.308,0.232-0.462
		c0.092-0.154,0.184-0.293,0.277-0.417c0.092-0.122,0.23-0.185,0.416-0.185c0.43-0.186,0.754-0.186,0.971,0
		c0.215,0.185,0.369,0.432,0.463,0.74C140.183,18.339,140.183,18.693,140.091,19.093z"/>
	<path fill="#FFFFFF" d="M146.987,10.399c-0.186-0.092-0.385-0.061-0.602,0.092c-0.217,0.155-0.385,0.386-0.508,0.694
		c0,0.063-0.047,0.201-0.139,0.417c-0.092,0.217-0.186,0.432-0.277,0.647c-0.094,0.216-0.17,0.416-0.23,0.601
		c-0.063,0.185-0.109,0.309-0.141,0.37c-0.031,0.063-0.092,0.124-0.184,0.185c-0.092,0.063-0.186,0.139-0.277,0.231
		c-0.094,0.092-0.186,0.201-0.277,0.323c-0.094,0.125-0.109,0.248-0.047,0.37h0.555l-2.219,7.214v0.186
		c0,0.185-0.016,0.385-0.047,0.601c-0.031,0.217-0.031,0.386,0,0.509c0.031,0.125,0.047,0.247,0.047,0.37
		c0.244,0.124,0.445,0.217,0.6,0.277c0.154,0.062,0.34,0.078,0.555,0.046c0.217-0.03,0.385-0.092,0.51-0.185
		c0.123-0.093,0.277-0.2,0.463-0.323c0.061-0.061,0.184-0.17,0.369-0.324c0.186-0.153,0.371-0.324,0.555-0.508
		c0.186-0.186,0.355-0.355,0.51-0.51c0.152-0.152,0.262-0.277,0.322-0.369c0.061-0.093,0.123-0.215,0.186-0.371
		c0.061-0.152,0.061-0.322,0-0.508h-0.186l-0.184,0.092c-0.063,0.063-0.154,0.139-0.277,0.231c-0.125,0.093-0.248,0.185-0.371,0.278
		c-0.123,0.092-0.23,0.185-0.324,0.277c-0.092,0.092-0.199,0.2-0.322,0.323c-0.125,0.124-0.248,0.217-0.371,0.277
		c-0.123,0.062-0.23,0.124-0.322,0.185c-0.094,0.063-0.232,0.063-0.416,0c0-0.061-0.033-0.185-0.094-0.369
		c0-0.061-0.031-0.123-0.092-0.186v-0.186l1.48-5.918l0.092-0.277c0.061-0.123,0.123-0.261,0.186-0.417
		c0.061-0.153,0.105-0.307,0.139-0.462c0.029-0.153,0.105-0.324,0.23-0.509c0.061,0,0.092-0.014,0.092-0.046c0-0.03,0-0.076,0-0.139
		c0.123-0.123,0.277-0.246,0.463-0.37c0.186-0.123,0.355-0.246,0.51-0.37c0.152-0.123,0.277-0.278,0.369-0.462
		c0.092-0.185,0.139-0.37,0.139-0.555c0.123-0.431,0.123-0.754,0-0.971C147.325,10.647,147.173,10.492,146.987,10.399z"/>
	<path fill="#FFFFFF" d="M154.524,19.88c-0.186,0.124-0.371,0.277-0.555,0.462c-0.186,0.185-0.418,0.401-0.695,0.647
		c-0.277,0.248-0.57,0.448-0.879,0.602c-0.309,0.154-0.6,0.277-0.877,0.369c-0.277,0.094-0.555,0.125-0.832,0.094
		s-0.449-0.14-0.51-0.324c-0.063-0.186-0.109-0.371-0.139-0.555c-0.031-0.186-0.031-0.354,0-0.51
		c0.029-0.152,0.076-0.291,0.139-0.416h0.186c0.184,0,0.307,0,0.369,0l0.186-0.092c0.123,0,0.23-0.016,0.324-0.047
		c0.092-0.029,0.277-0.106,0.555-0.23c0.277-0.123,0.539-0.262,0.785-0.416s0.492-0.385,0.74-0.694
		c0.246-0.308,0.432-0.585,0.555-0.833c0.123-0.245,0.154-0.492,0.094-0.739c-0.063-0.245-0.217-0.493-0.463-0.739
		c-0.555-0.309-1.033-0.4-1.434-0.277c-0.402,0.123-0.818,0.401-1.248,0.832c-0.434,0.432-0.74,0.818-0.926,1.156
		c-0.186,0.34-0.402,0.785-0.646,1.34c-0.125,0.248-0.219,0.556-0.279,0.926c-0.063,0.37-0.092,0.693-0.092,0.971
		s0.092,0.587,0.277,0.925c0.186,0.339,0.432,0.634,0.74,0.879c0,0.062,0.029,0.108,0.092,0.139
		c0.063,0.032,0.123,0.046,0.186,0.046c0.863,0,1.586-0.169,2.174-0.508c0.584-0.339,1.186-0.817,1.803-1.434
		c0.061-0.061,0.123-0.17,0.186-0.324c0.061-0.152,0.152-0.307,0.277-0.463c0.123-0.152,0.199-0.277,0.23-0.369
		c0.031-0.093,0.047-0.169,0.047-0.231V19.88C154.831,19.757,154.708,19.757,154.524,19.88z M150.64,19.048
		c0.43-0.74,0.77-1.232,1.018-1.48c0.246-0.246,0.445-0.37,0.602-0.37c0.152,0,0.291,0.046,0.416,0.139
		c0.121,0.093,0.184,0.201,0.184,0.323c0,0.125-0.078,0.311-0.23,0.556c-0.154,0.247-0.51,0.524-1.064,0.833
		c-0.063,0-0.201,0.016-0.416,0.045c-0.217,0.032-0.385,0.047-0.508,0.047V19.048z"/>
	<path fill="#FFFFFF" d="M171.399,11.833c-0.092-0.185-0.264-0.308-0.508-0.37c-0.063,0-0.156,0-0.279,0s-0.23,0-0.322,0
		c-0.094,0-0.186,0-0.277,0c-0.094,0-0.156,0.017-0.186,0.046c-0.031,0.032-0.125,0.125-0.277,0.278
		c-0.154,0.154-0.264,0.231-0.324,0.231c-0.063,0.185-0.17,0.479-0.324,0.878c-0.154,0.402-0.34,0.802-0.555,1.203
		c-0.217,0.401-0.416,0.786-0.602,1.156c-0.184,0.37-0.309,0.647-0.369,0.832c0,0.063-0.031,0.139-0.092,0.232
		c-0.063,0.092-0.094,0.201-0.094,0.323l-3.236,6.289c-0.063,0.124-0.078,0.247-0.047,0.37c0.031,0.124,0.094,0.23,0.186,0.324
		c0.092,0.092,0.199,0.154,0.324,0.185c0.121,0.031,0.246-0.047,0.369-0.231c0.123-0.186,0.246-0.432,0.371-0.74
		c0.121-0.309,0.184-0.586,0.184-0.832c0.061-0.123,0.139-0.292,0.232-0.509c0.092-0.216,0.199-0.431,0.322-0.647
		c0.123-0.215,0.217-0.416,0.277-0.602c0.061-0.061,0.094-0.152,0.094-0.277l0.186-0.185h0.369c0.246,0,0.508,0,0.787,0
		c0.277,0,0.584,0,0.924,0c0.338,0,0.631,0,0.879,0c0.061,0,0.139,0.017,0.23,0.046c0.094,0.031,0.17,0.047,0.232,0.047
		c0.061,0,0.152,0.031,0.277,0.092v3.792c0,0.062,0.045,0.108,0.139,0.14c0.092,0.031,0.184,0.078,0.277,0.139
		c0.092,0.061,0.168,0.061,0.23,0c0.061-0.061,0.123-0.107,0.186-0.139c0.061-0.031,0.123-0.093,0.186-0.186
		c0.061-0.092,0.092-0.186,0.092-0.277c0-0.093,0-0.293,0-0.602s0-0.646,0-1.018c0-0.369,0-0.708,0-1.017c0-0.308,0-0.539,0-0.694
		c0-0.152,0.014-0.43,0.047-0.832c0.029-0.4,0.061-0.862,0.092-1.387c0.029-0.523,0.047-1.064,0.047-1.619
		c0-0.556,0.014-1.094,0.045-1.619c0.031-0.523,0.061-0.971,0.094-1.341c0.029-0.37,0.029-0.662,0-0.879
		C171.552,12.219,171.491,12.018,171.399,11.833z M170.521,15.348c0,0.124-0.016,0.34-0.047,0.647
		c-0.031,0.309-0.045,0.647-0.045,1.018c0,0.369-0.016,0.693-0.047,0.971s-0.047,0.509-0.047,0.693c-0.123,0-0.23,0.017-0.322,0.047
		c-0.094,0.031-0.172,0.031-0.232,0c-0.063-0.03-0.123-0.047-0.184-0.047c-0.063,0-0.186,0-0.371,0
		c-0.063,0-0.184-0.014-0.369-0.046c-0.186-0.03-0.387-0.046-0.602-0.046c-0.217,0-0.416,0.016-0.602,0.046
		c-0.186,0.032-0.34,0.046-0.463,0.046l-0.092-0.185v-0.093c0.061-0.061,0.092-0.139,0.092-0.23c0-0.093,0.031-0.169,0.094-0.232
		c0.061-0.061,0.092-0.185,0.092-0.369c0.369-0.74,0.787-1.494,1.248-2.266c0.463-0.77,0.848-1.619,1.156-2.543
		c0.061,0,0.154-0.015,0.277-0.046c0.123-0.03,0.215-0.014,0.277,0.046c0.123,0.37,0.186,0.786,0.186,1.249
		C170.521,14.469,170.521,14.917,170.521,15.348z"/>
	<path fill="#FFFFFF" d="M179.749,19.648c-0.217,0.093-0.432,0.216-0.646,0.37c-0.217,0.154-0.402,0.309-0.555,0.462
		c-0.154,0.155-0.293,0.263-0.416,0.324c-0.063-0.123-0.063-0.245,0-0.37c0.061-0.123,0.137-0.262,0.23-0.416
		c0.092-0.154,0.17-0.354,0.23-0.602c0.061-0.061,0.094-0.153,0.094-0.277l0.184-0.277c0.123-0.186,0.232-0.37,0.324-0.555
		c0.092-0.186,0.17-0.371,0.23-0.556c0.061-0.061,0.094-0.153,0.094-0.277c0.184-0.308,0.246-0.538,0.184-0.694
		c-0.061-0.152-0.17-0.23-0.322-0.23c-0.154,0-0.311,0.063-0.463,0.186c-0.154,0.124-0.324,0.277-0.508,0.462l-0.277-0.185
		c-0.125-0.061-0.248-0.123-0.371-0.186c-0.125-0.061-0.23-0.107-0.324-0.139c-0.092-0.029-0.17-0.076-0.23-0.139
		c-0.248,0-0.432,0-0.555,0c-0.125,0-0.246,0.032-0.371,0.093c-0.123,0.062-0.262,0.155-0.416,0.277
		c-0.154,0.124-0.293,0.263-0.416,0.416c-0.123,0.155-0.277,0.37-0.463,0.647c-0.184,0.277-0.369,0.571-0.555,0.879
		c-0.184,0.309-0.338,0.646-0.461,1.018c-0.125,0.369-0.186,0.709-0.186,1.018s0.031,0.633,0.092,0.971
		c0.061,0.34,0.277,0.57,0.648,0.693c0.061,0,0.152,0,0.277,0c0.123,0,0.246,0,0.369,0s0.246-0.015,0.369-0.047
		c0.125-0.029,0.232-0.045,0.324-0.045c0.094,0,0.186-0.047,0.277-0.14c0.094-0.093,0.186-0.185,0.277-0.276
		c0.094-0.094,0.17-0.154,0.232-0.186c0.061-0.031,0.123-0.061,0.186-0.092c0.061-0.031,0.076,0,0.045,0.092
		s-0.107,0.139-0.23,0.139c0,0.124-0.092,0.293-0.277,0.508c-0.186,0.217-0.402,0.433-0.648,0.648
		c-0.246,0.217-0.477,0.401-0.693,0.555c-0.217,0.154-0.324,0.293-0.324,0.416c-0.061,0-0.123,0.032-0.184,0.093
		c-0.063,0.062-0.139,0.124-0.232,0.185c-0.092,0.063-0.17,0.125-0.23,0.186c-0.063,0.062-0.125,0.092-0.186,0.092l-0.092,0.186
		c0,0.063-0.047,0.124-0.139,0.185c-0.092,0.062-0.277,0.339-0.555,0.833c-0.277,0.492-0.463,0.893-0.555,1.201
		c-0.094,0.309-0.186,0.602-0.279,0.879c-0.092,0.277-0.045,0.477,0.141,0.602c0.061,0.061,0.105,0.139,0.139,0.23
		c0.029,0.094,0.092,0.17,0.184,0.232c0.094,0.061,0.17,0.123,0.232,0.184c0.061,0.061,0.123,0.094,0.184,0.094
		c0.309,0.061,0.633,0.014,0.973-0.139c0.338-0.154,0.631-0.355,0.877-0.602s0.479-0.555,0.695-0.926
		c0.215-0.369,0.383-0.678,0.508-0.924c0.186-0.555,0.338-1.002,0.463-1.341c0.123-0.339,0.246-0.708,0.369-1.11
		c0.123-0.4,0.246-0.754,0.371-1.063c0.123-0.308,0.184-0.555,0.184-0.739c0.123-0.309,0.338-0.602,0.648-0.879
		c0.309-0.277,0.586-0.539,0.832-0.786c0-0.062,0.047-0.14,0.139-0.231c0.092-0.093,0.199-0.199,0.324-0.324
		c0.123-0.122,0.246-0.23,0.369-0.323s0.186-0.185,0.186-0.277S179.966,19.556,179.749,19.648z M176.374,23.579l-0.186,0.277
		c-0.063,0.186-0.107,0.416-0.139,0.693s-0.107,0.524-0.23,0.74c-0.125,0.217-0.217,0.385-0.279,0.509
		c-0.246,0.554-0.432,0.956-0.555,1.202s-0.246,0.492-0.369,0.74c-0.125,0.244-0.309,0.43-0.555,0.555
		c-0.246,0.123-0.463,0.186-0.648,0.186c-0.061-0.063-0.107-0.109-0.139-0.141s-0.045-0.076-0.045-0.137
		c-0.063-0.311-0.031-0.602,0.092-0.879s0.309-0.617,0.555-1.018s0.477-0.709,0.693-0.925s0.447-0.446,0.693-0.694
		c0.123-0.185,0.277-0.416,0.463-0.693s0.4-0.509,0.648-0.693V23.579z M177.575,18.862v0.186c0,0.123,0,0.246,0,0.369
		c0,0.124-0.107,0.309-0.322,0.555c-0.217,0.248-0.463,0.509-0.74,0.786c-0.277,0.278-0.541,0.509-0.787,0.694
		c-0.246,0.185-0.494,0.185-0.74,0c-0.184-0.061-0.277-0.215-0.277-0.463c0-0.246,0-0.463,0-0.647
		c0.123-0.555,0.309-1.017,0.555-1.388c0.246-0.369,0.523-0.8,0.834-1.295l0.092-0.092c0.061-0.061,0.123-0.107,0.186-0.139
		c0.061-0.03,0.168-0.061,0.322-0.093c0.154-0.03,0.309-0.046,0.463-0.046s0.262,0.063,0.324,0.185
		c0.061,0.124,0.092,0.231,0.092,0.324s-0.016,0.154-0.045,0.185c-0.033,0.031-0.063,0.063-0.094,0.093
		c-0.031,0.031-0.078,0.093-0.139,0.185c-0.061,0.093-0.107,0.186-0.139,0.277c-0.031,0.093-0.107,0.171-0.23,0.231
		c0,0.063-0.031,0.093-0.092,0.093H177.575z"/>
	<path fill="#FFFFFF" d="M185.185,13.775c-0.246,0-0.477,0.047-0.693,0.139c-0.217,0.093-0.34,0.231-0.369,0.416
		c-0.031,0.185,0.107,0.34,0.416,0.463h0.277c0.186,0.062,0.309,0.092,0.369,0.092h0.094l0.277-0.092V13.96
		C185.556,13.838,185.431,13.775,185.185,13.775z"/>
	<path fill="#FFFFFF" d="M184.815,19.603l-0.092,0.092c-0.063,0.125-0.139,0.201-0.232,0.231c-0.092,0.032-0.154,0.078-0.184,0.139
		c-0.033,0.063-0.078,0.124-0.141,0.185l-0.092,0.093c-0.063,0.124-0.139,0.218-0.23,0.278c-0.094,0.062-0.154,0.123-0.186,0.185
		s-0.063,0.124-0.092,0.185c-0.033,0.063-0.094,0.124-0.186,0.186c-0.092,0.063-0.17,0.123-0.23,0.184
		c-0.063,0.063-0.125,0.14-0.186,0.232c-0.063,0.092-0.139,0.139-0.232,0.139c-0.092,0-0.137-0.093-0.137-0.277
		c0-0.186,0.045-0.339,0.137-0.463c0.094-0.123,0.217-0.385,0.371-0.786c0.152-0.399,0.324-0.8,0.508-1.202
		c0.186-0.4,0.355-0.801,0.51-1.202c0.152-0.4,0.277-0.708,0.369-0.925c0.094-0.215,0.078-0.385-0.045-0.51
		c-0.125-0.121-0.295-0.184-0.51-0.184c-0.217,0-0.447,0.045-0.693,0.139c-0.246,0.092-0.51,0.184-0.787,0.277
		c-0.277,0.092-0.494,0.23-0.646,0.416c-0.154,0.185-0.23,0.401-0.23,0.646c0.123,0,0.262,0,0.416,0
		c0.152,0,0.291-0.029,0.416-0.092c0.123-0.061,0.262-0.139,0.416-0.231c0.152-0.093,0.291-0.169,0.416-0.231
		c0.061,0.125,0.031,0.277-0.092,0.463c-0.125,0.185-0.186,0.34-0.186,0.463c-0.125,0.247-0.264,0.617-0.416,1.109
		c-0.154,0.494-0.309,0.925-0.463,1.295s-0.293,0.709-0.416,1.018c0,0.185-0.031,0.339-0.092,0.462v1.11
		c0,0.062,0.029,0.107,0.092,0.139c0.061,0.031,0.123,0.107,0.186,0.23c0.244,0.063,0.477,0.047,0.693-0.046
		c0.215-0.093,0.416-0.231,0.602-0.416c0.184-0.185,0.354-0.385,0.508-0.602c0.154-0.216,0.291-0.416,0.416-0.601l0.186-0.371
		c0.123-0.184,0.23-0.369,0.324-0.554c0.092-0.185,0.168-0.37,0.23-0.556c0.061-0.061,0.092-0.122,0.092-0.185
		C184.907,19.757,184.876,19.603,184.815,19.603z"/>
	<path fill="#FFFFFF" d="M190.575,10.399c-0.184-0.092-0.385-0.061-0.602,0.092c-0.215,0.155-0.385,0.386-0.508,0.694
		c0,0.063-0.047,0.201-0.139,0.417c-0.092,0.217-0.186,0.432-0.277,0.647c-0.092,0.216-0.17,0.416-0.23,0.601
		c-0.063,0.185-0.109,0.309-0.141,0.37c-0.031,0.063-0.092,0.124-0.184,0.185c-0.094,0.063-0.186,0.139-0.277,0.231
		c-0.094,0.092-0.186,0.201-0.277,0.323c-0.094,0.125-0.109,0.248-0.047,0.37h0.555l-2.219,7.214v0.186
		c0,0.185-0.018,0.385-0.047,0.601c-0.031,0.217-0.031,0.386,0,0.509c0.029,0.125,0.047,0.247,0.047,0.37
		c0.244,0.124,0.445,0.217,0.6,0.277c0.154,0.062,0.34,0.078,0.557,0.046c0.215-0.03,0.383-0.092,0.508-0.185
		c0.123-0.093,0.277-0.2,0.463-0.323c0.061-0.061,0.186-0.17,0.369-0.324c0.186-0.153,0.371-0.324,0.555-0.508
		c0.186-0.186,0.354-0.355,0.51-0.51c0.152-0.152,0.26-0.277,0.322-0.369c0.063-0.093,0.123-0.215,0.186-0.371
		c0.061-0.152,0.061-0.322,0-0.508h-0.186l-0.184,0.092c-0.063,0.063-0.156,0.139-0.277,0.231c-0.125,0.093-0.248,0.185-0.371,0.278
		c-0.123,0.092-0.23,0.185-0.322,0.277c-0.094,0.092-0.201,0.2-0.324,0.323c-0.125,0.124-0.248,0.217-0.371,0.277
		c-0.123,0.062-0.23,0.124-0.322,0.185c-0.094,0.063-0.232,0.063-0.416,0c0-0.061-0.033-0.185-0.094-0.369
		c0-0.061-0.031-0.123-0.092-0.186v-0.186l1.48-5.918l0.092-0.277c0.061-0.123,0.123-0.261,0.186-0.417
		c0.061-0.153,0.105-0.307,0.139-0.462c0.029-0.153,0.105-0.324,0.23-0.509c0.061,0,0.092-0.014,0.092-0.046c0-0.03,0-0.076,0-0.139
		c0.123-0.123,0.277-0.246,0.463-0.37c0.186-0.123,0.354-0.246,0.51-0.37c0.152-0.123,0.277-0.278,0.369-0.462
		c0.092-0.185,0.139-0.37,0.139-0.555c0.123-0.431,0.123-0.754,0-0.971C190.913,10.647,190.761,10.492,190.575,10.399z"/>
	<path fill="#FFFFFF" d="M197.521,19.88c-0.186,0.124-0.371,0.277-0.555,0.462c-0.186,0.185-0.418,0.401-0.695,0.647
		c-0.277,0.248-0.57,0.448-0.877,0.602c-0.311,0.154-0.602,0.277-0.879,0.369c-0.277,0.094-0.555,0.125-0.834,0.094
		c-0.277-0.031-0.447-0.14-0.508-0.324c-0.063-0.186-0.107-0.371-0.139-0.555c-0.031-0.186-0.031-0.354,0-0.51
		c0.031-0.152,0.076-0.291,0.139-0.416h0.186c0.186,0,0.307,0,0.369,0l0.186-0.092c0.123,0,0.23-0.016,0.324-0.047
		c0.092-0.029,0.277-0.106,0.555-0.23c0.277-0.123,0.539-0.262,0.785-0.416s0.494-0.385,0.74-0.694
		c0.246-0.308,0.43-0.585,0.555-0.833c0.123-0.245,0.154-0.492,0.094-0.739c-0.063-0.245-0.219-0.493-0.463-0.739
		c-0.555-0.309-1.033-0.4-1.434-0.277c-0.402,0.123-0.818,0.401-1.248,0.832c-0.434,0.432-0.74,0.818-0.926,1.156
		c-0.186,0.34-0.402,0.785-0.648,1.34c-0.123,0.248-0.215,0.556-0.277,0.926c-0.061,0.37-0.092,0.693-0.092,0.971
		s0.092,0.587,0.277,0.925c0.186,0.339,0.43,0.634,0.74,0.879c0,0.062,0.031,0.108,0.092,0.139c0.061,0.032,0.123,0.046,0.186,0.046
		c0.863,0,1.586-0.169,2.174-0.508c0.586-0.339,1.186-0.817,1.803-1.434c0.061-0.061,0.123-0.17,0.186-0.324
		c0.061-0.152,0.152-0.307,0.277-0.463c0.123-0.152,0.199-0.277,0.23-0.369c0.031-0.093,0.047-0.169,0.047-0.231V19.88
		C197.827,19.757,197.704,19.757,197.521,19.88z M193.636,19.048c0.43-0.74,0.77-1.232,1.018-1.48c0.244-0.246,0.445-0.37,0.6-0.37
		s0.293,0.046,0.418,0.139c0.123,0.093,0.184,0.201,0.184,0.323c0,0.125-0.078,0.311-0.23,0.556
		c-0.154,0.247-0.51,0.524-1.064,0.833c-0.061,0-0.199,0.016-0.416,0.045c-0.217,0.032-0.385,0.047-0.508,0.047V19.048z"/>
</g>
</svg>
